HIERARCHY
ROOT Hips
{
	OFFSET -3.958830 18.904000 13.208200
	CHANNELS 6 Xposition Yposition Zposition Zrotation Yrotation Xrotation 
	JOINT LHipJoint
	{
		OFFSET 0.000000 0.000000 0.000000
		CHANNELS 3 Zrotation Yrotation Xrotation
		JOINT LeftUpLeg
		{
			OFFSET 1.800000 -1.400000 0.085000
			CHANNELS 3 Zrotation Yrotation Xrotation
			JOINT LeftLeg
			{
				OFFSET 2.215000 -6.000000 0.000000
				CHANNELS 3 Zrotation Yrotation Xrotation
				JOINT LeftFoot
				{
					OFFSET 2.500000 -6.900000 0.000000
					CHANNELS 3 Zrotation Yrotation Xrotation
					JOINT LeftToeBase
					{
						OFFSET 0.200000 -0.500000 1.950000
						CHANNELS 3 Zrotation Yrotation Xrotation
						End Site
						{
							OFFSET 0.000000 0.000000 0.000000
						}
					}
				}
			}
		}
	}
	JOINT RHipJoint
	{
		OFFSET 0.000000 0.000000 0.000000
		CHANNELS 3 Zrotation Yrotation Xrotation
		JOINT RightUpLeg
		{
			OFFSET -1.800000 -1.400000 0.085000
			CHANNELS 3 Zrotation Yrotation Xrotation
			JOINT RightLeg
			{
				OFFSET -2.215000 -6.000000 0.000000
				CHANNELS 3 Zrotation Yrotation Xrotation
				JOINT RightFoot
				{
					OFFSET -2.500000 -6.900000 0.000000
					CHANNELS 3 Zrotation Yrotation Xrotation
					JOINT RightToeBase
					{
						OFFSET -0.200000 -0.500000 1.950000
						CHANNELS 3 Zrotation Yrotation Xrotation
						End Site
						{
							OFFSET 0.000000 0.000000 0.000000
						}
					}
				}
			}
		}
	}
	JOINT LowerBack
	{
		OFFSET 0.000000 0.000000 0.000000
		CHANNELS 3 Zrotation Yrotation Xrotation
		JOINT Spine
		{
			OFFSET -0.087000 1.940000 -0.288900
			CHANNELS 3 Zrotation Yrotation Xrotation
			JOINT Spine1
			{
				OFFSET 0.000000 1.950000 0.060000
				CHANNELS 3 Zrotation Yrotation Xrotation
				JOINT Neck
				{
					OFFSET 0.000000 0.000000 0.000000
					CHANNELS 3 Zrotation Yrotation Xrotation
					JOINT Neck1
					{
						OFFSET 0.000000 1.600000 0.340000
						CHANNELS 3 Zrotation Yrotation Xrotation
						JOINT Head
						{
							OFFSET 0.000000 1.667000 -0.240000
							CHANNELS 3 Zrotation Yrotation Xrotation
							End Site
							{
								OFFSET 0.000000 0.000000 0.000000
							}
						}
					}
				}
				JOINT LeftShoulder
				{
					OFFSET 0.000000 0.000000 0.000000
					CHANNELS 3 Zrotation Yrotation Xrotation
					JOINT LeftArm
					{
						OFFSET 2.700000 1.550000 -0.730000
						CHANNELS 3 Zrotation Yrotation Xrotation
						JOINT LeftForeArm
						{
							OFFSET 5.450000 0.000000 0.000000
							CHANNELS 3 Zrotation Yrotation Xrotation
							JOINT LeftHand
							{
								OFFSET 3.450000 0.000000 0.000000
								CHANNELS 3 Zrotation Yrotation Xrotation
								JOINT LeftHandIndex1
								{
									OFFSET 0.750000 0.000000 0.000000
									CHANNELS 3 Zrotation Yrotation Xrotation
									End Site
									{
										OFFSET 0.000000 0.000000 0.000000
									}
								}
							}
						}
					}
				}
				JOINT RightShoulder
				{
					OFFSET 0.000000 0.000000 0.000000
					CHANNELS 3 Zrotation Yrotation Xrotation
					JOINT RightArm
					{
						OFFSET -2.700000 1.550000 -0.730000
						CHANNELS 3 Zrotation Yrotation Xrotation
						JOINT RightForeArm
						{
							OFFSET -5.450000 0.000000 0.000000
							CHANNELS 3 Zrotation Yrotation Xrotation
							JOINT RightHand
							{
								OFFSET -3.450000 0.000000 0.000000
								CHANNELS 3 Zrotation Yrotation Xrotation
								JOINT RightHandIndex1
								{
									OFFSET -0.750000 0.000000 0.000000
									CHANNELS 3 Zrotation Yrotation Xrotation
									End Site
									{
										OFFSET 0.000000 0.000000 0.000000
									}
								}
							}
						}
					}
				}
			}
		}
	}
}
MOTION
Frames: 13
Frame Time: 0.016667
-0.051050 17.556130 -1.628920 -5.480678 13.870126 8.131426 -14.657484 12.153622 2.927988 13.356010 -1.836324 -23.846184 -7.092641 5.524708 10.968330 -1.023048 4.300006 3.046598 -0.292030 -0.595310 -0.423360 18.825803 -11.485066 2.632767 -3.108627 2.147710 -17.078019 3.367635 -4.134856 12.761229 0.319752 -3.406880 3.206339 -0.000380 0.992270 0.198490 -5.363490 1.232545 -6.866713 16.851606 1.664832 2.121844 -22.857597 2.214209 11.509805 7.285630 -4.772416 -8.133739 -6.494595 19.394780 52.638782 2.294870 9.205040 12.138010 -8.493621 -0.469446 0.238822 -51.790967 -16.813244 3.034882 8.992679 -25.094227 -3.076100 -4.529180 2.840424 0.190040 0.633040 -0.629890 0.053350 -6.604901 4.618910 5.069342 82.618703 47.846258 39.010160 57.596253 63.112260 30.569971 2.074157 -1.948503 -0.611730 0.354840 0.641800 -0.086500 
-0.094910 17.560680 -1.650570 -6.083740 15.131094 7.741281 -14.633741 12.042377 2.925118 13.630839 -1.779486 -24.624249 -6.547067 5.473405 11.503525 -1.018450 4.212871 3.052581 -0.237360 -0.515370 -0.401510 18.850514 -11.555842 2.724453 -2.478520 1.987871 -16.284149 4.175439 -4.195020 11.609278 0.282432 -3.438485 3.199742 0.034220 0.961610 0.192430 -5.466943 1.565774 -6.996344 16.839737 2.633595 2.929808 -21.624574 3.178100 11.690175 7.496742 -3.201866 -8.142490 -2.823857 17.052212 55.013913 3.679820 8.690710 11.925310 -8.125536 -2.159053 0.189379 -51.213293 -20.077635 4.609029 9.293630 -22.524047 -3.068942 -4.525232 2.847962 0.185410 0.610880 -0.605950 0.069110 -7.211410 5.466934 5.144453 84.674832 49.727050 38.904699 45.680819 55.079877 19.919428 2.039628 -1.999708 -0.581910 0.346050 0.605420 -0.078030 
-0.139020 17.564600 -1.678320 -6.631809 16.376411 7.274286 -14.633898 11.937947 2.929017 13.794695 -1.706105 -25.459762 -5.939680 5.433544 12.118222 -1.047205 4.176145 3.061356 -0.236040 -0.508200 -0.418640 18.850166 -11.641761 2.816772 -1.686769 1.843390 -15.576879 4.557924 -4.193388 10.701493 0.277342 -3.475491 3.205366 0.049720 0.979900 0.171890 -5.500853 1.911513 -7.138082 16.255944 3.765042 4.073210 -19.300399 4.343283 11.870347 7.672739 -1.436951 -8.109141 1.271453 14.082686 55.810631 4.830870 7.786800 11.898970 -8.100352 -4.360796 0.231463 -51.318117 -23.491734 6.261707 9.340081 -20.400324 -3.103020 -4.551396 2.828488 0.185590 0.614400 -0.624730 0.076650 -7.243738 6.821216 5.179622 85.246677 50.523496 37.390815 36.251025 46.511136 12.394630 2.016822 -1.953673 -0.599950 0.369040 0.611440 -0.077880 
-0.179060 17.572170 -1.704360 -6.888246 17.578380 6.845660 -14.666241 11.878873 2.906156 13.464733 -1.676689 -26.204572 -4.967788 5.276784 12.737771 -1.109837 4.109521 3.098109 -0.235600 -0.504590 -0.444320 18.817766 -11.711532 2.895863 -1.226677 1.656030 -14.822896 4.964363 -4.195574 9.688854 0.268829 -3.515318 3.216335 0.075230 1.023420 0.145050 -5.437612 2.149457 -7.235737 14.974873 4.849891 5.211663 -16.139969 5.454357 12.238509 7.400656 0.142367 -8.135948 4.733436 11.526812 55.095496 6.244300 6.625430 11.046850 -7.870307 -6.845916 0.577544 -52.533757 -26.416845 7.715543 9.573263 -19.529977 -3.315143 -4.563945 2.792598 0.206110 0.620130 -0.646800 0.091990 -6.479471 8.594353 5.090347 84.169724 50.296279 34.759214 28.480547 38.531234 7.494162 1.984271 -1.836835 -0.641050 0.432900 0.630010 -0.077650 
-0.207980 17.575610 -1.729060 -6.943383 18.492779 6.686448 -14.728747 11.824271 2.890472 12.939229 -1.691564 -26.830657 -4.149100 5.097300 13.010137 -1.200114 4.070265 3.132909 -0.282690 -0.562770 -0.491870 18.757036 -11.757840 2.949762 -1.102385 1.578443 -14.493782 5.466882 -4.249537 9.033800 0.292908 -3.565485 3.222123 0.082570 1.089670 0.117570 -5.272650 2.337068 -7.283279 13.140128 6.033321 6.090382 -12.190261 6.555003 12.613438 6.992056 1.673439 -8.169796 7.862199 9.003014 52.968673 6.735060 5.592540 10.302380 -7.500442 -9.192636 1.066308 -54.718504 -28.738029 8.973545 9.428381 -20.094236 -3.576102 -4.590968 2.751181 0.226710 0.650620 -0.696040 0.085390 -5.470337 10.435867 4.923286 81.974986 49.037335 31.496972 21.536967 31.594952 4.265032 1.941623 -1.684194 -0.713200 0.502470 0.684890 -0.090790 
-0.227940 17.574880 -1.752310 -6.846233 19.235802 6.967051 -14.815771 11.761132 2.892855 12.187943 -1.806333 -27.864707 -3.223139 4.934676 13.495136 -1.331193 4.066452 3.153150 -0.361540 -0.673060 -0.541820 18.682728 -11.763528 2.976894 -1.094440 1.609418 -14.630318 5.857775 -4.270732 8.492879 0.352823 -3.585781 3.236912 0.078400 1.164150 0.079630 -5.033082 2.464337 -7.266078 10.907166 7.247936 6.492461 -7.746635 7.541331 12.768356 6.373934 3.111723 -8.175770 10.444130 6.503961 49.792351 6.410130 4.483720 9.530750 -6.908136 -10.961202 1.554745 -57.916310 -30.468476 10.105085 8.747811 -22.056388 -3.877655 -4.623480 2.707281 0.256310 0.694020 -0.772680 0.052440 -4.251173 11.889903 4.624428 79.493002 46.771296 28.175853 15.325225 25.613050 2.149019 1.887371 -1.529075 -0.818440 0.578830 0.770960 -0.127390 
-0.238500 17.574670 -1.776110 -6.566487 20.044854 7.728883 -14.919243 11.703516 2.929696 11.029310 -2.091052 -29.422879 -2.014131 4.709358 14.190846 -1.448872 4.034878 3.174838 -0.441560 -0.773470 -0.589690 18.601058 -11.704889 2.977720 -1.323440 1.743115 -15.250372 6.409521 -4.299605 8.069968 0.411462 -3.573178 3.246365 0.071150 1.227000 0.061960 -4.745754 2.452897 -7.200032 8.402569 8.232532 6.411703 -3.361799 8.178124 12.671931 5.536342 4.491624 -8.288106 12.577135 4.190498 46.475517 5.732710 3.470360 8.578080 -5.950574 -12.038908 2.125733 -61.651522 -31.338433 10.753021 7.462197 -25.635512 -4.192023 -4.643955 2.690397 0.281320 0.737790 -0.826790 0.014760 -3.088287 12.586565 4.202921 77.390493 44.058144 25.208335 10.212004 20.858418 0.840912 1.845683 -1.410227 -0.903940 0.640680 0.854810 -0.155480 
-0.238890 17.575040 -1.796150 -6.185653 20.788471 8.667521 -15.003771 11.641754 2.976189 9.860853 -2.435889 -30.646585 -1.038171 4.424966 14.299341 -1.548815 3.983310 3.195862 -0.501770 -0.864810 -0.614070 18.538162 -11.632113 2.958457 -1.760193 1.945788 -16.139048 6.956217 -4.360962 7.989038 0.456485 -3.554019 3.236172 0.056520 1.267610 0.079710 -4.505278 2.412062 -7.108428 6.206018 9.176563 6.043221 0.650944 8.736467 12.561556 4.526309 5.667420 -8.563371 14.080381 1.840870 43.315615 4.930440 2.203660 7.498940 -4.778649 -12.832335 2.716182 -65.111343 -31.900184 11.172308 5.041937 -30.108218 -4.269198 -4.656543 2.723484 0.311410 0.771480 -0.854000 -0.023300 -1.983860 13.008015 3.909469 75.168644 40.711132 21.586839 5.620508 17.743720 -0.117560 1.813532 -1.326043 -0.958980 0.669010 0.926990 -0.179600 
-0.227390 17.568270 -1.814760 -5.847920 21.430345 9.847160 -15.063806 11.567288 3.046275 8.821751 -2.830825 -31.834041 -0.280117 4.145753 14.033282 -1.618673 3.908267 3.231995 -0.547730 -0.932120 -0.639610 18.500002 -11.531840 2.935039 -2.446392 2.250231 -17.418967 7.824980 -4.480758 8.229622 0.500837 -3.540688 3.228724 0.045010 1.305260 0.092840 -4.332042 2.337324 -7.022359 4.386763 9.870068 5.389636 4.095356 9.042110 12.231054 3.388238 6.486805 -8.778219 14.750643 -0.129111 40.075522 4.305080 0.831440 6.710040 -3.332355 -12.721188 3.153907 -68.497177 -31.889833 11.529187 0.620663 -35.408096 -3.621513 -4.662712 2.811554 0.322270 0.801700 -0.882000 -0.048030 -1.103000 12.548775 3.555481 73.541426 37.206063 18.187150 2.372326 15.906356 -0.733587 1.790018 -1.280872 -0.995800 0.689140 0.978930 -0.190090 
-0.211990 17.570360 -1.834210 -5.303508 22.040392 10.896360 -15.115480 11.530898 3.116467 7.727245 -3.231462 -32.530123 0.103436 3.896850 13.363891 -1.655089 3.797964 3.295051 -0.583270 -0.980870 -0.645880 18.460395 -11.433003 2.908125 -3.334216 2.467192 -18.533612 8.453998 -4.576137 8.473625 0.528869 -3.515089 3.234547 0.024970 1.327000 0.094730 -4.173998 2.189130 -6.961281 2.701142 10.304842 4.937725 6.937971 9.154969 12.078393 2.277578 6.989011 -9.158675 14.919597 -2.075219 37.731253 3.587170 -0.503360 6.047330 -2.020976 -12.857079 3.676049 -70.527777 -31.291233 11.273839 -5.333251 -41.179286 -2.056613 -4.656402 2.895959 0.333320 0.816620 -0.891510 -0.065750 -0.241218 12.458522 3.480945 71.385239 33.824861 14.576939 -0.132019 15.429044 -1.188923 1.777958 -1.231115 -1.017870 0.711990 1.003670 -0.194500 
-0.189220 17.578180 -1.852380 -4.835537 22.656303 11.844957 -15.151429 11.510091 3.178041 6.781615 -3.574676 -32.877467 0.188216 3.686883 12.382423 -1.681040 3.674441 3.367515 -0.617490 -1.012700 -0.663360 18.431190 -11.329988 2.894444 -4.330615 2.662999 -19.551807 9.278145 -4.718198 8.732153 0.547545 -3.512889 3.246533 0.008020 1.343920 0.079140 -4.059833 2.014016 -6.927713 1.464419 10.486543 4.592309 9.271890 9.063433 11.873922 1.214643 7.230606 -9.462243 14.658145 -3.788415 35.684797 2.853220 -1.771650 5.416570 -1.205259 -12.829136 4.058757 -71.703104 -30.101081 10.819753 -12.591396 -46.099213 0.677620 -4.653818 2.960958 0.341250 0.826750 -0.899890 -0.075870 0.939270 12.257770 3.497451 68.920633 30.379466 10.965579 -1.862335 15.958895 -1.538627 1.756869 -1.174976 -1.037640 0.743600 1.020250 -0.194650 
-0.160650 17.585440 -1.868740 -4.364501 23.098280 12.789973 -15.182497 11.512820 3.240842 5.835662 -3.900283 -33.143490 0.194676 3.516280 11.491248 -1.689938 3.555250 3.438027 -0.649160 -1.036350 -0.676870 18.405051 -11.214263 2.886190 -5.316101 2.803356 -20.443997 9.913206 -4.798750 8.752942 0.558182 -3.491360 3.267267 -0.013460 1.351170 0.059810 -3.959514 1.777445 -6.914449 0.463983 10.509300 4.278279 11.292150 8.836170 11.625636 0.130870 7.235939 -9.693530 13.982674 -5.098711 33.825352 2.179730 -2.768340 4.788700 -0.804147 -12.555427 4.436076 -72.517715 -28.238035 10.161276 -21.328481 -50.718104 4.829944 -4.646653 3.015627 0.350020 0.828210 -0.898450 -0.083330 2.515793 11.832567 3.518258 66.392250 26.806913 7.242948 -3.503812 17.499130 -1.938865 1.733952 -1.116791 -1.049910 0.772280 1.027740 -0.192550 
-0.128200 17.587540 -1.879060 -3.898029 23.347438 13.688479 -15.208827 11.541352 3.300361 4.959205 -4.200998 -33.308919 0.156465 3.382664 10.766664 -1.657396 3.432108 3.506882 -0.657300 -1.038320 -0.669120 18.381173 -11.095422 2.880455 -6.262478 2.922265 -21.303674 10.386069 -4.847536 8.824193 0.562393 -3.464883 3.288712 -0.039070 1.333520 0.048610 -3.874334 1.495918 -6.914966 -0.251747 10.328255 3.949618 12.827329 8.459650 11.286251 -0.848246 6.907809 -9.784517 12.731649 -6.031339 32.102291 1.356630 -3.538870 4.548660 -0.915703 -11.983125 4.819572 -72.939933 -25.715228 9.250421 -31.297068 -54.439437 10.440796 -4.621833 3.089410 0.338090 0.820460 -0.890630 -0.083570 4.364967 11.235428 3.458367 63.759718 23.241038 3.922121 -4.388987 18.965118 -2.176147 1.733163 -1.090396 -1.030080 0.765530 1.006650 -0.186800 
